<svg version="1.1" id="Layer_1" xmlns="http://www.w3.org/2000/svg" xmlns:xlink="http://www.w3.org/1999/xlink" x="0px" y="0px"
	 width="100%" viewBox="0 0 384 480" enable-background="new 0 0 384 480" xml:space="preserve">
<path fill="#000000" opacity="1.000000" stroke="none" 
	d="
M184.021271,407.094604 
	C146.651413,426.527954 109.605392,445.781799 72.557304,465.031647 
	C67.685486,467.563019 62.755550,469.987183 57.941288,472.623077 
	C54.419224,474.551483 51.060059,474.897644 47.603786,472.589600 
	C44.276424,470.367645 43.398865,467.150970 43.853996,463.428345 
	C46.013264,445.767242 48.269451,428.117767 50.362778,410.448914 
	C52.475208,392.618927 54.420753,374.769196 56.468750,356.931458 
	C58.631565,338.093719 60.642586,319.235718 63.089046,300.434570 
	C64.335182,290.857971 70.417274,288.131897 78.688095,292.957184 
	C93.785110,301.764954 108.890800,310.561218 123.854706,319.591248 
	C127.230118,321.628174 129.640366,321.655945 132.668274,319.051117 
	C139.479874,313.191284 146.544205,307.624756 153.521713,301.958588 
	C155.817169,300.094543 158.001877,297.504181 161.415329,299.135315 
	C164.764557,300.735748 164.233429,304.131165 164.448807,307.045074 
	C165.269760,318.151703 166.107681,329.258789 166.730438,340.377380 
	C166.921997,343.797150 168.479050,345.757660 171.338593,347.405762 
	C185.760025,355.717743 200.085236,364.196503 214.466995,372.577637 
	C218.290863,374.806091 222.100052,377.032227 221.964783,382.230835 
	C221.836700,387.153595 218.286819,389.312408 214.448929,391.282227 
	C204.389633,396.445099 194.376190,401.697266 184.021271,407.094604 
M70.952988,294.726166 
	C68.547836,295.715363 67.505203,297.497009 67.213562,300.105225 
	C65.587135,314.650818 63.826309,329.181335 62.118122,343.717804 
	C58.819515,371.788452 55.508972,399.857727 52.237125,427.931519 
	C50.851974,439.816681 49.417454,451.698822 48.270779,463.607910 
	C47.706783,469.465515 51.044815,471.487122 56.296928,468.887543 
	C59.425674,467.338928 62.613155,465.905029 65.707901,464.292328 
	C101.103249,445.847321 136.482407,427.371216 171.873535,408.918091 
	C185.436981,401.846039 199.048340,394.865387 212.582230,387.737457 
	C219.570206,384.057098 219.745422,380.269623 213.115341,376.345123 
	C198.362854,367.612671 183.513626,359.043488 168.774216,350.289276 
	C166.383545,348.869324 164.846588,348.799408 162.778885,350.958374 
	C155.409729,358.652832 147.806503,366.122772 140.310562,373.696198 
	C116.658661,397.592407 93.020851,421.502625 69.352051,445.382080 
	C68.143860,446.601013 66.996002,448.406952 64.657372,447.063843 
	C63.714546,444.385651 65.776886,442.730896 66.959587,440.904510 
	C89.493401,406.106628 112.051468,371.324249 134.700073,336.601013 
	C136.983368,333.100433 136.384140,331.275574 132.774567,329.219360 
	C118.025688,320.817596 103.474075,312.070312 88.763077,303.600922 
	C83.173317,300.382751 78.053497,296.234222 70.952988,294.726166 
M132.462021,375.979584 
	C142.028687,366.353851 151.595367,356.728119 161.657166,346.604218 
	C154.350449,341.919189 148.033691,337.781067 140.800522,334.246948 
	C120.579048,365.427551 100.537018,396.331482 82.644501,423.920929 
	C97.289520,409.846252 114.638466,393.172943 132.462021,375.979584 
M159.719376,304.540405 
	C158.727448,303.674774 158.146210,304.525085 157.767700,305.169342 
	C152.907349,313.441711 148.093658,321.741516 143.037079,330.431488 
	C149.516403,334.486176 155.438202,338.417908 161.668442,341.217346 
	C161.668442,334.746460 161.889282,328.800476 161.606476,322.878571 
	C161.322220,316.926270 160.536560,310.997925 159.719376,304.540405 
M144.621094,314.367645 
	C140.757980,317.404663 136.712341,320.238007 133.213196,324.211517 
	C135.641510,326.033020 137.686874,330.092926 140.500687,326.534271 
	C143.784653,322.380951 146.605316,317.622284 148.705902,311.391052 
	C146.932114,312.684692 146.037888,313.336853 144.621094,314.367645 
z"/>
<path fill="#000000" opacity="1.000000" stroke="none" 
	d="
M343.160492,147.928802 
	C345.234314,147.683548 347.703857,145.448639 348.391998,148.503983 
	C348.947968,150.972519 346.102997,151.231964 344.339264,151.851440 
	C343.209686,152.248169 341.972260,152.122498 341.417816,150.832062 
	C340.835297,149.476273 341.870850,148.757935 343.160492,147.928802 
z"/>
<path fill="#000000" opacity="1.000000" stroke="none" 
	d="
M214.830566,242.585754 
	C214.895508,241.669037 214.893982,240.894897 215.278503,240.470871 
	C216.541733,239.077850 217.507187,237.004257 219.894913,237.484436 
	C221.050400,237.716843 221.432755,238.885712 220.851318,239.807022 
	C219.516876,241.921402 218.405518,244.753799 214.830566,242.585754 
z"/>
<path fill="#000000" opacity="1.000000" stroke="none" 
	d="
M232.456573,229.654358 
	C231.716797,230.530746 231.197906,231.171021 230.565720,231.666809 
	C229.559860,232.455643 228.511505,233.483078 227.103256,232.637329 
	C226.352982,232.186707 226.160721,231.323257 226.557190,230.489563 
	C227.437378,228.638718 228.861099,227.202850 230.846497,226.852585 
	C232.565704,226.549301 233.080475,227.763443 232.456573,229.654358 
z"/>
<path fill="#000000" opacity="1.000000" stroke="none" 
	d="
M194.950714,260.058594 
	C196.508240,259.287018 197.988922,258.807465 198.344391,260.690674 
	C198.736130,262.766083 196.888229,263.825470 195.556259,264.972839 
	C194.769150,265.650879 193.696121,265.802856 192.859146,265.042633 
	C191.467911,263.778961 192.562912,262.674286 193.290573,261.634460 
	C193.658554,261.108582 194.204117,260.707001 194.950714,260.058594 
z"/>
<path fill="#000000" opacity="1.000000" stroke="none" 
	d="
M358.754578,146.699829 
	C356.833954,146.827972 355.538788,146.323334 356.318268,144.560410 
	C357.108551,142.773102 359.014038,142.282684 360.835114,142.113953 
	C362.048767,142.001480 363.257965,142.513214 363.478363,143.794174 
	C363.771820,145.499710 362.336975,145.911591 361.048676,146.254288 
	C360.419434,146.421646 359.766602,146.500214 358.754578,146.699829 
z"/>
<path fill="#000000" opacity="1.000000" stroke="none" 
	d="
M371.977295,141.404572 
	C372.678619,140.721619 373.186951,140.166473 373.766479,140.078156 
	C375.674408,139.787415 377.815613,139.290085 378.872681,141.576080 
	C379.338287,142.582886 378.517639,143.630615 377.491913,143.728088 
	C375.363892,143.930328 372.503326,145.792389 371.977295,141.404572 
z"/>
<path fill="#000000" opacity="1.000000" stroke="none" 
	d="
M277.828064,187.930878 
	C279.272278,187.305313 280.467682,187.173019 281.130646,188.454758 
	C281.798035,189.745087 280.911255,190.698364 279.960938,191.396988 
	C278.542358,192.439850 277.136353,193.881805 275.106079,192.438095 
	C274.247498,190.020355 276.493927,189.393326 277.828064,187.930878 
z"/>
<path fill="#000000" opacity="1.000000" stroke="none" 
	d="
M289.008850,179.840286 
	C290.653168,178.877640 291.864319,177.381638 293.675385,178.598480 
	C294.298706,179.017303 294.422821,179.753937 294.066162,180.336411 
	C293.012329,182.057495 291.502411,183.864395 289.557251,183.723312 
	C286.646759,183.512238 287.294495,181.682053 289.008850,179.840286 
z"/>
<path fill="#000000" opacity="1.000000" stroke="none" 
	d="
M186.035675,275.067139 
	C184.626938,275.979340 183.566040,277.831177 182.090958,276.238098 
	C180.781494,274.823944 182.000015,273.510986 183.057373,272.475311 
	C184.059570,271.493622 185.097748,269.799866 186.682709,270.796570 
	C188.754440,272.099365 187.289505,273.556152 186.035675,275.067139 
z"/>
<path fill="#000000" opacity="1.000000" stroke="none" 
	d="
M268.602844,198.065216 
	C268.554871,198.857803 268.510864,199.421844 268.211487,199.759491 
	C266.926208,201.209015 265.778229,203.098694 263.374298,202.324066 
	C262.492615,202.039948 262.121857,201.024582 262.674225,200.295807 
	C264.102295,198.411575 265.376556,195.895966 268.602844,198.065216 
z"/>
<path fill="#000000" opacity="1.000000" stroke="none" 
	d="
M239.982849,222.429108 
	C237.759460,221.872360 237.853134,220.588242 238.790268,219.394318 
	C240.099686,217.726120 241.565140,216.054230 244.321716,217.124603 
	C244.775497,220.304123 242.461655,221.306519 239.982849,222.429108 
z"/>
<path fill="#000000" opacity="1.000000" stroke="none" 
	d="
M207.403641,253.307800 
	C206.016617,254.384964 204.519211,255.172379 203.728775,253.638245 
	C202.629547,251.504776 204.813568,250.420105 206.017380,249.184845 
	C206.831177,248.349747 208.127640,247.618454 209.052841,248.856964 
	C210.448669,250.725433 208.628265,251.828430 207.403641,253.307800 
z"/>
<path fill="#000000" opacity="1.000000" stroke="none" 
	d="
M331.082794,157.951050 
	C329.328217,158.660828 327.574982,159.192413 327.258789,157.118530 
	C326.977997,155.276917 328.777649,154.380814 330.278931,153.723297 
	C331.445831,153.212250 333.008575,152.508347 333.730103,154.086197 
	C334.684082,156.172363 332.535797,156.757477 331.082794,157.951050 
z"/>
<path fill="#000000" opacity="1.000000" stroke="none" 
	d="
M300.401581,173.775543 
	C300.462677,173.004730 300.515503,172.384766 300.847015,172.135742 
	C302.461243,170.923080 303.668854,168.615509 306.245056,169.690445 
	C307.125580,170.057846 307.218781,171.088150 306.637909,171.792999 
	C305.065643,173.700867 303.442017,175.683319 300.401581,173.775543 
z"/>
<path fill="#000000" opacity="1.000000" stroke="none" 
	d="
M318.552002,164.895111 
	C316.865540,165.871841 315.291565,167.140015 313.997345,165.320435 
	C313.016327,163.941101 314.431091,162.961884 315.418121,162.157425 
	C316.562531,161.224640 317.936890,160.183716 319.361115,161.166412 
	C321.207123,162.440109 319.923370,163.635284 318.552002,164.895111 
z"/>
<path fill="#000000" opacity="1.000000" stroke="none" 
	d="
M174.821274,286.970673 
	C173.432404,288.027313 171.950882,288.905334 171.325790,287.169861 
	C170.617386,285.203094 172.446915,283.947601 173.755157,282.753448 
	C174.513031,282.061646 175.599869,281.635223 176.358444,282.573761 
	C177.867859,284.441284 175.957352,285.455353 174.821274,286.970673 
z"/>
<path fill="#000000" opacity="1.000000" stroke="none" 
	d="
M254.092346,206.999222 
	C256.251251,206.901810 257.080261,207.840652 256.021301,209.346191 
	C254.740341,211.167404 253.229645,213.214355 250.410553,211.511124 
	C250.173340,208.947952 252.097214,208.127258 254.092346,206.999222 
z"/>
</svg>