<svg width="161" height="160" viewBox="0 0 161 160" fill="none" xmlns="http://www.w3.org/2000/svg">
<path d="M124.477 42.111C117.534 38.3936 114.647 29.4359 107.679 25.7687C100.817 22.1584 92.3601 24.8499 85.5445 28.5457C70.0058 36.9706 57.3974 50.3755 48.927 65.8897C40.4566 81.404 36.0248 98.9598 34.9626 116.603C39.3086 122.509 45.9419 128.963 52.1408 132.88C55.1521 134.782 58.4691 136.449 62.0283 136.591C63.9665 136.668 65.9582 136.293 67.8193 136.84C69.3107 137.278 70.6331 138.289 72.1803 138.434C73.4853 138.555 74.758 138.041 76.057 137.87C77.9663 137.62 79.8953 138.117 81.8206 138.08C83.7464 138.043 85.9096 137.229 86.534 135.407C86.6594 135.04 86.7238 134.634 86.9812 134.344C87.2861 134 87.7793 133.91 88.2328 133.834C102.435 131.453 115.179 122.687 123.687 111.069C132.195 99.4503 136.656 85.1706 137.778 70.8146C137.994 68.0523 138.085 65.227 137.341 62.5575C136.184 58.403 133.126 55.0341 131.581 51.0082C130.693 48.6937 130.233 46.0502 128.41 44.3704C127.294 43.3418 125.814 42.8268 124.477 42.111ZM100.664 71.5168C100.364 74.3731 99.1619 77.0626 97.7037 79.5367C96.0056 82.4169 93.9379 85.0781 91.5676 87.4357C90.5882 88.41 89.5469 89.3395 88.3482 90.0248C85.3534 91.7357 79.7983 91.4304 76.8279 89.6775L76.481 89.351C73.2081 88.4852 70.7693 85.1569 70.929 81.7758C70.9904 80.4757 71.3902 79.2098 71.4628 77.91C71.4921 77.3811 71.4681 76.8419 71.6071 76.3306C71.788 75.668 72.2244 75.1116 72.5961 74.5339C73.2261 73.5537 73.6888 72.4653 74.3992 71.5421C75.8142 69.7032 78.0418 68.7162 80.175 67.8015C80.6952 67.5784 81.2272 67.3521 81.7925 67.3085C82.4121 67.2604 83.0248 67.4367 83.6423 67.5065C86.4261 67.8242 89.2612 65.6562 89.6856 62.887C89.7321 62.5816 89.7599 62.2553 89.9465 62.0094C90.0847 61.8267 90.2933 61.7136 90.5014 61.6179C93.1088 60.4143 96.3963 61.3705 98.3338 63.4902C100.269 65.6088 100.964 68.6611 100.664 71.5168Z" fill="#CF5919"/>
<path d="M57.7303 129.474C55.9504 128.873 54.0008 128.787 52.175 129.228C53.2107 132.168 56.7228 133.378 59.8304 133.619C62.938 133.86 66.2435 133.567 68.9875 135.046C70.0034 135.594 70.9815 136.393 72.1361 136.375C73.6527 136.35 74.7808 134.933 76.2416 134.526C77.9408 134.053 79.7153 135.017 81.4773 134.927C83.9417 134.801 85.7788 132.726 87.8352 131.362C91.2735 129.08 95.8743 128.553 98.6222 125.475C100.393 123.491 101.14 120.68 103.17 118.962C105.279 117.176 108.31 116.959 110.672 115.523C112.699 114.29 114.083 112.257 115.405 110.288C117.492 107.176 119.588 104.047 121.152 100.643C122.662 97.3569 123.92 93.5371 127.116 91.8461C127.955 91.402 128.889 91.1358 129.674 90.6033C132.35 88.7893 132.255 84.936 132.789 81.7475C133.65 76.6048 136.86 71.6646 135.794 66.561C135.382 64.5907 134.356 62.8115 133.64 60.9309C132.628 58.2732 132.239 55.4226 131.423 52.6984C130.607 49.9742 129.251 47.2499 126.872 45.6926C127.238 46.6515 127.605 47.6094 127.962 48.5721C130.065 54.2354 131.847 60.0165 133.297 65.881C133.702 67.5173 134.08 69.2366 133.664 70.8695C133.048 73.2889 130.83 74.9912 129.937 77.3232C129.131 79.4266 129.481 81.8345 128.681 83.9396C127.002 88.3581 120.908 90.0485 119.678 94.6119C119.323 95.9266 119.414 97.3932 118.697 98.551C117.992 99.6887 116.671 100.262 115.657 101.135C113.234 103.219 112.704 106.863 110.412 109.089C107.358 112.055 101.871 111.866 99.5364 115.425C98.4367 117.101 98.1949 119.438 96.5142 120.53C95.427 121.238 94.0378 121.202 92.7695 121.472C89.2274 122.228 86.7442 125.328 83.6775 127.256C80.7768 129.078 77.3541 129.837 74.0073 130.567C70.906 131.242 67.7491 131.922 64.5864 131.661C62.2572 131.468 59.9728 130.759 57.945 129.598" fill="#F49237"/>
<path d="M127.57 47.3746C125.515 46.9902 123.4 48.0826 122.041 49.6711C120.682 51.2595 119.947 53.2778 119.32 55.2723C117.401 61.3802 116.232 67.7486 113.624 73.5957C110.994 79.4951 106.97 84.6848 102.47 89.3179C92.1236 99.9684 78.9039 107.98 64.4333 111.311C59.8332 112.37 54.8472 113.093 51.3498 116.263C48.796 118.579 47.6503 123.353 44.2851 124.101C44.4455 126.923 47.8368 128.396 50.6623 128.329C53.4879 128.261 56.3677 127.328 59.0871 128.101C62.0525 128.943 64.951 131.739 67.7288 130.401C69.1112 129.735 70.1531 128.097 71.6796 128.25C72.2892 128.312 72.8226 128.665 73.3533 128.971C75.1256 129.991 77.1496 130.57 79.1936 130.64C80.6508 130.691 82.1715 130.464 83.3793 129.647C84.3636 128.983 85.0673 127.978 85.6469 126.941C87.2335 124.102 88.0927 120.816 90.2335 118.368C92.121 116.211 94.8159 114.931 96.8953 112.959C98.9411 111.019 100.315 108.486 102.148 106.344C105.406 102.538 110.171 99.8752 112.167 95.2799C112.753 93.9319 113.076 92.4559 113.886 91.229C115.383 88.9633 118.261 87.9487 119.873 85.763C121.911 82.9988 121.461 79.0551 123.164 76.072C123.969 74.6597 125.259 73.4519 125.524 71.8476C125.709 70.7201 125.358 69.5024 125.817 68.4563C126.129 67.7435 126.765 67.2381 127.302 66.6746C129.511 64.356 130.074 60.6227 128.648 57.756C130.37 58.9219 133.134 57.694 133.421 55.6341C133.563 54.6145 133.191 53.5988 132.777 52.6568C131.742 50.298 130.102 47.8484 127.57 47.3746Z" fill="#B34A11"/>
<path d="M54.6379 130.8C56.6874 130.942 58.483 132.675 60.5513 133.021C61.8787 133.243 63.0107 133.059 64.2829 132.647C66.4189 131.955 67.3551 132.608 69.0705 133.651C69.6293 133.991 70.136 134.297 70.7984 134.418C72.2115 134.676 73.4258 134.069 74.3767 133.074C75.1379 132.278 74.2303 130.783 73.1923 131.417C70.4596 133.086 69.4319 130.502 67.0992 130.088C65.7824 129.854 64.7075 130.495 63.4988 130.885C60.6892 131.79 59.4565 130.529 56.9465 129.836C55.9707 129.566 55.337 129.44 54.4552 130.007C54.1065 130.231 54.2004 130.77 54.6379 130.8Z" fill="#FCBD6D"/>
<path d="M79.1863 132.717C81.2868 131.615 82.822 132.946 84.8783 132.614C86.3759 132.372 86.8753 131.509 87.9506 130.483C90.4062 128.141 96.3217 127.802 97.0383 123.932C97.1238 123.468 96.6196 123.096 96.2336 123.437C93.4474 125.893 89.9418 126.609 87.1513 129.004C85.9282 130.054 84.7994 131.04 83.1872 131.104C82.4841 131.132 81.7649 130.814 81.0505 130.875C79.8756 130.975 79.5316 131.245 78.6556 131.975C78.2513 132.313 78.7351 132.954 79.1863 132.717Z" fill="#FCBD6D"/>
<path d="M101.21 119.368C103.104 116.024 106.482 116.839 109.22 115.305C110.737 114.455 111.577 113.221 112.423 111.723C113.759 109.362 114.815 107.601 116.791 105.64C118.213 104.229 119.303 103.262 119.801 101.288C119.903 100.883 119.362 100.453 119.044 100.823C117.404 102.731 115.515 104.388 113.871 106.278C112.489 107.867 111.911 109.748 110.772 111.478C108.125 115.498 101.764 114.127 100.358 118.992C100.213 119.493 100.943 119.841 101.21 119.368Z" fill="#FCBD6D"/>
<path d="M123.456 93.916C124.798 91.6078 127.223 91.2741 128.784 89.3722C129.774 88.1671 130.061 86.7579 130.339 85.2607C130.756 83.0189 131.061 81.2127 132.315 79.2327C133.316 77.6538 134.228 76.7362 134.126 74.8038C134.108 74.4562 133.656 74.2792 133.455 74.6043C131.67 77.489 129.681 80.02 129.103 83.418C128.919 84.4985 128.981 85.9106 128.48 86.9014C127.721 88.4014 126.066 89.3521 124.901 90.4207C123.727 91.4978 123.12 91.9612 122.604 93.538C122.439 94.0429 123.188 94.3774 123.456 93.916Z" fill="#FCBD6D"/>
<path d="M77.0365 61.675C76.2518 61.7328 75.4369 61.628 74.6983 61.897C73.3751 62.3785 72.7513 63.8454 71.8603 64.9356C70.1821 66.9885 67.3918 67.7976 65.4911 69.6468C62.8521 72.2137 62.3943 76.2865 62.6913 79.956C62.8705 82.1623 63.4845 84.6665 65.4623 85.6605C67.7869 84.0018 68.8183 81.1101 69.7191 78.4006C69.8888 77.8903 70.0599 77.3478 69.9354 76.825C69.7678 76.1227 69.1062 75.6239 68.9211 74.9262C68.7425 74.2542 69.0515 73.5373 69.4994 73.0058C69.9474 72.4743 70.5276 72.0728 71.0311 71.593C72.1191 70.5562 72.817 69.185 73.7171 67.9813C74.6172 66.7775 75.8614 65.6709 77.3618 65.5756C78.0291 65.533 78.7287 65.692 79.3525 65.4517C79.9577 65.2189 80.3657 64.6576 80.7211 64.1151C81.6201 62.7429 81.9885 60.6267 81.3163 59.1303C80.3843 60.5771 78.7517 61.5489 77.0365 61.675Z" fill="#B34A11"/>
<path d="M67.6583 74.695C67.546 72.4565 69.5867 71.5446 70.9115 70.1511C71.8737 69.1385 72.6315 67.8151 72.7666 66.4218C72.8135 65.9368 72.2278 65.7945 71.9091 66.0359C71.0655 66.6733 70.7613 67.4966 70.1808 68.3461C69.4758 69.3772 68.3693 69.9658 67.5953 70.932C66.6818 72.073 66.3489 73.3721 66.7317 74.7863C66.8638 75.2772 67.6859 75.2506 67.6583 74.695Z" fill="#8B2F00"/>
<path d="M78.6625 53.7504C76.1649 53.2041 73.5626 53.9382 71.2109 54.9418C68.552 56.0769 65.9829 57.6211 64.2249 59.9166C62.4674 62.2116 61.6429 65.3653 62.6536 68.0729L63.9925 78.5679C63.7895 75.4183 63.6939 71.9207 65.7305 69.5096C66.1514 69.0115 66.6621 68.5635 66.9071 67.9585C67.0389 67.6333 67.0853 67.2805 67.1742 66.9412C67.6095 65.2793 69.0081 64.0641 70.4027 63.0616C72.256 61.7296 74.6309 60.5348 76.7354 61.4203C79.0531 62.3955 79.9958 65.5089 82.396 66.256C83.8744 66.7163 85.6299 66.0014 86.3664 64.6395C87.3948 62.7384 86.4063 60.3784 85.1557 58.6159C83.5546 56.3589 81.367 54.3418 78.6625 53.7504Z" fill="#8B2F00"/>
<path d="M110.986 26.31C108.435 23.9165 104.781 23.0431 101.279 22.967C97.7776 22.8899 94.2961 23.5173 90.7937 23.6708C86.6285 23.8518 82.4365 23.3704 78.2881 23.7882C70.738 24.5402 63.8092 28.182 57.2477 31.9835C50.9266 35.6499 45.1852 40.6639 40.6106 46.3681C38.8611 48.9211 37.1177 51.4794 35.3619 54.0374C33.5198 56.7351 31.6587 59.4495 30.3329 62.4401C28.1711 67.2962 27.5 72.6646 26.0864 77.7915C25.0505 81.5533 23.6034 85.2434 23.2789 89.1274C23.0053 92.3095 23.5049 95.509 24.3151 98.6005C26.1524 105.623 29.6218 112.209 34.3891 117.69C39.2931 123.339 45.8259 127.892 53.2115 129.061C55.5225 129.432 57.8669 129.462 60.2 129.492C63.6314 129.543 67.146 129.573 70.3443 128.34C73.6978 127.053 76.3748 124.511 79.2924 122.419C84.4502 118.723 90.5127 116.366 95.4666 112.393C99.1972 109.41 102.172 105.601 105.065 101.788C108.081 97.8146 111.032 93.798 113.932 89.7385C114.876 88.4263 115.808 87.101 116.965 85.978C117.452 85.4967 117.979 85.0579 118.421 84.5272C118.93 83.9103 119.306 83.201 119.677 82.4855C120.969 80.0191 122.261 77.5416 123.553 75.0757C124.337 73.5688 125.154 71.9395 124.952 70.2496C124.877 69.5976 124.661 68.9525 124.751 68.3055C124.976 66.7525 126.806 66.0159 127.58 64.6567C129.008 62.1649 126.387 59.1609 126.639 56.2971C126.742 55.0533 127.404 53.8683 127.342 52.6201C127.242 50.4311 125.044 48.9108 124.41 46.8117C123.873 45.0229 124.554 43.029 124 41.2452C123.149 38.5128 119.956 37.4238 117.797 35.5566C114.888 33.0399 113.789 28.9475 110.986 26.31ZM83.3798 70.9972C83.0576 72.6656 82.2139 74.1819 81.3309 75.6322C79.1479 79.2353 75.0598 83.3006 72.2872 86.4718C69.9226 84.5688 68.2145 81.8517 67.5299 78.8947C67.0865 76.9728 67.0418 74.9274 66.1254 73.1862C65.4998 71.9857 64.479 70.962 64.2474 69.6433C63.9695 68.1047 64.867 66.5487 66.1012 65.6051C67.3411 64.6561 68.8737 64.1886 70.365 63.7373C72.0166 63.2499 73.7212 62.7463 75.4351 62.9335C77.0309 63.1059 78.4906 63.8653 79.9105 64.6055C80.7535 65.0506 81.62 65.5082 82.2669 66.2071C83.4154 67.4654 83.6965 69.323 83.3798 70.9972Z" fill="#2E0503"/>
<path d="M117.796 35.5565C118.044 35.7713 118.309 35.9799 118.587 36.1777C118.154 36.2059 117.74 36.2403 117.324 36.2986C115.366 36.5935 113.184 38.1881 113.723 40.0888C114.032 41.1971 115.141 41.8513 116.091 42.4946C121.481 46.138 124.182 52.5304 126.605 58.5657C126.835 59.1403 127.07 59.7675 126.899 60.3646C126.739 60.9508 126.231 61.361 125.746 61.7358C123.732 63.2758 121.723 64.8221 119.715 66.3684C118.965 66.9485 118.166 67.5857 117.901 68.4994C117.69 69.226 117.856 69.9986 118.047 70.7256C118.544 72.6312 119.218 74.5661 118.964 76.5142C118.71 78.4623 117.126 80.4227 115.163 80.2748C113.282 80.1295 112.092 78.279 111.089 76.6776C110.098 75.076 108.596 73.3345 106.732 73.6326C104.785 73.9283 103.918 76.2003 103.424 78.0993C102.794 80.55 102.159 82.9944 101.523 85.4393C100.492 89.4376 99.2443 93.7661 95.8916 96.1873C94.7316 97.0264 93.3799 97.5882 92.2139 98.421C87.6714 101.687 86.5115 108.765 81.3308 110.877C80.6424 111.157 79.8874 111.33 79.151 111.242C78.2214 111.131 77.3679 110.615 76.4374 110.516C74.7295 110.334 73.1913 111.575 72.1854 112.969C71.186 114.368 70.4866 115.989 69.2622 117.199C67.3254 119.114 64.0952 120.02 63.3893 122.646C62.7575 124.984 64.5506 127.219 66.2105 128.983L66.4557 129.28C64.3974 129.543 62.2829 129.526 60.1979 129.493C57.8648 129.463 55.5204 129.433 53.2094 129.062C51.7159 128.828 50.2678 128.447 48.8472 127.949C45.754 125.515 43.1215 122.499 41.1871 119.067C39.7517 116.53 38.2967 113.461 35.4433 112.866C33.9461 112.554 32.4189 113.029 30.892 113.124C27.9062 108.697 25.663 103.766 24.3129 98.6025C23.5023 95.5115 23.0032 92.3115 23.2768 89.1293C23.6013 85.2454 25.0484 81.5553 26.0842 77.7934C27.4984 72.666 28.169 67.2982 30.3308 62.442C30.4447 62.1852 30.5651 61.9352 30.685 61.6846C29.8349 65.3638 29.2782 69.1105 29.0399 72.8787C36.5312 58.6832 44.8476 44.7434 55.6931 32.9423C56.205 32.621 56.7228 32.2942 57.2461 31.985C58.2143 31.4294 59.1883 30.8685 60.1797 30.3248C56.739 36.235 52.6313 41.7415 48.3335 47.0704C44.5764 51.7189 40.6457 56.2672 37.5485 61.3727C32.915 69.0019 30.2382 77.7954 29.8139 86.7042C33.2151 79.9594 36.8659 73.3462 40.5055 66.7327C44.1571 60.1078 47.8141 53.4769 51.4717 46.8583C55.0173 40.4134 58.6481 33.8884 63.6147 28.5028C68.2711 26.1625 73.1307 24.3065 78.2865 23.7897C79.7977 23.6405 81.3228 23.6041 82.853 23.6204C81.6444 25.8586 78.9782 27.0838 76.4378 27.6626C73.6296 28.2864 70.6481 28.4323 68.1192 29.7919C64.1427 31.9282 62.2502 36.4735 60.3418 40.5631C51.4957 59.4973 36.2432 75.3658 30.3413 95.4178C29.5375 98.1587 28.9071 101.023 29.2409 103.851C29.3066 104.409 29.6336 105.121 30.181 104.997C30.449 104.928 30.6166 104.667 30.7596 104.429C32.6727 101.16 34.5794 97.8976 36.4871 94.6232C37.6148 97.5763 39.4352 101.047 42.6008 101.095C43.587 101.107 44.6317 100.755 45.5412 101.16C46.8587 101.744 47.7364 103.785 49.0758 103.259C49.6261 103.039 49.9821 102.406 50.5629 102.341C51.7662 102.194 52.0787 104.378 53.2814 104.474C54.236 104.55 54.6457 103.327 55.1778 102.528C56.3723 100.738 59.0311 100.749 61.0787 101.425C63.1204 102.096 65.1242 103.237 67.2692 103.043C69.9949 102.783 71.9976 100.462 74.3781 99.1163C76.2954 98.046 78.4952 97.5926 80.4959 96.6846C85.8937 94.231 89.2125 88.8367 92.6042 83.9704C95.6997 79.5085 99.1193 75.2698 102.815 71.2875C105.362 68.5346 108.179 65.6659 108.805 61.9682C109.058 60.4575 108.927 58.9172 108.796 57.4004C108.594 55.1021 108.386 52.8093 108.189 50.5162C108.067 49.0947 107.934 47.637 107.305 46.3593C105.218 42.1073 98.5666 41.0843 97.9644 36.3863C97.3971 34.0412 95.5807 32.1839 93.2219 31.6398C92.7991 31.5442 92.346 31.4892 91.9451 31.6485C91.335 31.8898 91.0026 32.5355 90.7302 33.1357C89.3838 36.0316 88.0433 38.9329 86.7031 41.8229C85.9568 43.4427 85.1973 45.1096 85.0841 46.8905C84.8861 50.1046 86.8249 53.0057 88.4365 55.7898C88.9134 56.626 89.3652 57.7146 88.7917 58.4832C88.4286 58.9627 87.7912 59.1266 87.1935 59.161C83.5285 59.4102 80.1388 56.2349 76.526 56.9174C75.0758 57.1924 73.7608 58.0743 72.2941 58.136C69.6322 58.2446 67.6338 55.7433 65.1132 54.8926C61.0251 53.51 56.7897 56.7966 54.4924 60.4498C53.8405 61.4993 53.1422 62.6954 51.9447 63.0199C51.4565 63.1465 50.8957 63.1244 50.4792 63.4123C49.5856 64.0472 50.1992 65.6256 51.2474 65.935C52.2957 66.2562 53.3915 65.752 54.3646 65.2374C55.3314 64.7288 56.3936 64.1878 57.4621 64.3979C59.1943 64.752 60.0508 66.9043 61.7487 67.4167C62.6209 67.6856 63.5846 67.4662 64.4507 67.7528C64.214 68.354 64.1292 68.9956 64.2454 69.6432C64.4718 70.9439 65.475 71.9614 66.1008 73.138L66.0945 73.1439C65.7216 74.332 65.1557 75.4729 64.8348 76.6805C63.966 79.9988 65.1811 83.7752 67.8273 85.9532C68.2938 86.3394 68.8034 86.6861 69.1548 87.1806C70.3157 88.8404 68.8706 91.3021 66.9378 91.9055C65.005 92.5088 62.9278 91.8492 61.022 91.1769C59.1107 90.4988 57.0642 89.7865 55.0995 90.2822C53.5874 90.662 51.7081 91.6391 50.7106 90.4329C50.3574 89.9965 50.2751 89.3974 50.239 88.8348C50.0502 85.9046 50.5015 82.7038 48.8921 80.2506C47.7915 78.5569 45.8277 77.4577 45.0808 75.5797C44.7027 74.6169 44.6816 73.547 44.7722 72.5095C45.3764 65.0593 50.6725 58.9395 55.7089 53.408C56.8766 52.1139 58.0987 50.7923 59.6814 50.0369C61.2583 49.287 63.3097 49.2486 64.616 50.405C63.742 48.4405 64.6409 46.0807 66.0892 44.4878C67.5384 42.8832 69.4498 41.8065 71.122 40.4399C71.9214 39.7786 72.808 39.0017 73.8458 39.0811C74.4233 39.1221 74.9349 39.4214 75.4713 39.6388C78.6532 40.8995 82.2213 38.7798 84.4046 36.1404C86.5877 33.5123 88.0803 30.2726 90.6882 28.059C92.6348 26.4103 95.0689 25.4501 97.4427 24.5237C98.842 23.9757 100.294 23.4231 101.793 23.5037C103.279 23.5963 104.647 24.2936 106.025 24.8315C107.805 25.5296 109.683 25.9765 111.407 26.7969C111.447 26.816 111.482 26.8405 111.523 26.8596C113.938 29.4838 115.084 33.2112 117.796 35.5565Z" fill="#4F271F"/>
<path d="M121.989 39.7521C122.991 41.3141 121.725 43.3918 122.082 45.2125C122.6 47.8527 126.339 49.2604 126.149 51.9439C126.056 53.2558 124.994 54.3 124.674 55.5755C124.056 58.0439 126.327 60.6213 125.536 63.0401C125.144 64.2394 124.075 65.092 123.512 66.2212C122.973 67.3043 122.935 68.5561 122.791 69.7573C122.275 74.0239 120.303 77.9569 118.361 81.7907C118.046 82.4131 117.703 83.0657 117.11 83.433C116.517 83.7999 115.597 83.7332 115.274 83.115C113.979 88.0623 109.926 91.7055 106.916 95.8398C104.454 99.222 102.631 103.051 99.9933 106.299C96.123 111.063 90.735 114.301 85.4618 117.443C81.1372 120.019 76.8127 122.595 72.4891 125.171C70.8856 126.127 69.233 127.1 67.3905 127.402C66.0061 127.629 64.5897 127.462 63.1968 127.294C58.1968 126.695 53.1963 126.094 48.1964 125.495C46.3793 125.277 44.5466 125.055 42.8161 124.459C41.9927 124.176 41.2106 123.813 40.464 123.39C44.2458 126.24 48.5577 128.323 53.2151 129.062C55.5222 129.428 57.8674 129.461 60.203 129.493C63.6279 129.54 67.1507 129.57 70.3478 128.341C73.6978 127.052 76.374 124.505 79.2915 122.414C84.452 118.716 90.5127 116.364 95.467 112.394C99.1973 109.405 102.174 105.597 105.063 101.787C108.077 97.8119 111.035 93.7935 113.936 89.7335C114.873 88.4227 115.811 87.098 116.965 85.9729C117.454 85.4952 117.982 85.0529 118.42 84.5272C118.933 83.9109 119.308 83.1939 119.679 82.483C120.97 80.013 122.261 77.5426 123.552 75.0727C124.34 73.5639 125.152 71.9379 124.957 70.2466C124.882 69.5962 124.658 68.9483 124.752 68.3004C124.978 66.7526 126.806 66.0134 127.583 64.6558C129.011 62.1599 126.388 59.1594 126.636 56.2944C126.744 55.0462 127.405 53.8684 127.346 52.6166C127.241 50.4269 125.043 48.9123 124.415 46.8119C123.878 45.0194 124.554 43.029 123.999 41.2421C123.339 39.1157 121.259 37.9854 119.349 36.7056C119.392 37.0652 119.519 37.4115 119.753 37.7136C120.372 38.5169 121.442 38.8984 121.989 39.7521Z" fill="#906E6D"/>
<path d="M31.2628 90.2943C30.3447 90.342 28.8192 91.636 29.1066 92.5089C28.5308 97.5616 29.5529 102.785 31.9915 107.248C32.5587 108.285 33.2144 109.3 34.1197 110.061C35.3162 111.067 36.8545 111.556 38.1933 112.364C42.0091 114.665 43.7467 119.17 46.1548 122.919C46.4687 123.407 46.8085 123.899 47.2886 124.226C47.7686 124.553 48.4225 124.685 48.9355 124.414C49.3536 124.191 49.6043 123.752 49.8126 123.328C51.2246 120.442 51.7033 117.11 51.1609 113.943C51.0412 113.244 50.5699 112.361 49.8918 112.57C49.2432 112.77 49.1566 113.84 48.4894 113.963C48.0721 114.04 47.6918 113.656 47.5827 113.246C47.4737 112.836 47.5511 112.404 47.5624 111.98C47.5836 111.196 47.3687 110.408 46.953 109.743C46.8269 109.541 46.6672 109.338 46.4402 109.265C46.1481 109.171 45.8385 109.315 45.5337 109.351C44.8612 109.431 44.2254 108.97 43.8557 108.403C43.4861 107.835 43.314 107.166 43.0677 106.535C42.1607 104.212 40.131 102.357 37.7359 101.663C36.8307 101.4 35.7651 101.214 35.2968 100.397C35.1141 100.077 35.0544 99.7046 34.9986 99.341C34.7405 97.6698 34.4834 95.9986 34.2253 94.3275C34.0849 93.4193 33.9371 92.4874 33.4805 91.6906C33.0224 90.8923 32.1804 90.2471 31.2628 90.2943Z" fill="#906E6D"/>
<path d="M83.0971 47.3625C82.0727 46.9594 80.8394 47.068 79.965 46.3989C79.0885 45.7287 78.88 44.525 78.5114 43.4848C78.1292 42.405 77.5102 41.4104 76.7107 40.5904C76.4291 40.3017 76.0718 40.0157 75.6708 40.0613C74.9522 40.1441 74.6123 41.2199 73.8895 41.1908C73.1809 41.1622 73.0069 40.1667 72.4527 39.7253C71.7511 39.1661 70.383 40.4863 70.6155 41.3523C69.8627 42.4126 69.28 43.6346 69.2009 44.9317C69.1212 46.2293 69.6108 47.6053 70.6577 48.3756C71.4206 48.9367 72.3829 49.1297 73.3042 49.3475C76.0438 49.9941 78.6916 50.9727 81.3314 51.949C82.6083 52.4215 83.9755 52.9647 84.7011 54.1167C85.1145 54.7739 85.2674 55.5564 85.4122 56.3187C86.0352 59.5893 86.6572 62.8598 87.2802 66.1304C87.388 66.6987 87.4971 67.2747 87.4633 67.8514C87.4201 68.5846 87.1504 69.2833 86.8836 69.9673C85.769 72.8264 84.6109 75.7572 82.5414 78.0228C82.0051 78.6098 81.4088 79.1511 80.9837 79.8227C80.4702 80.6339 80.2361 81.5864 79.8406 82.4609C78.992 84.3374 77.4143 85.8065 75.658 86.8827C73.9018 87.959 71.9582 88.6825 70.0371 89.4245C69.581 89.601 69.0556 89.8638 68.997 90.3489C68.9382 90.8402 69.4463 91.2496 69.9406 91.2758C70.4344 91.3015 70.899 91.0604 71.3349 90.8266C74.5154 89.1162 77.7655 87.3514 80.1656 84.6527C83.7081 80.6688 84.941 75.2027 87.3082 70.4257C88.1367 68.7543 89.1226 67.126 89.527 65.3049C90.2489 62.0506 89.021 58.7142 87.8137 55.607C87.2868 54.2502 86.7593 52.894 86.2324 51.5372C85.5828 49.8659 84.7671 48.02 83.0971 47.3625Z" fill="#906E6D"/>
<g opacity="0.5">
<path d="M57.8501 31.8752C54.0841 33.3836 51.0295 36.292 48.5776 39.524C46.1257 42.756 44.1952 46.3452 42.0187 49.7688C40.712 51.8248 39.3142 53.824 37.8321 55.7568C34.2987 60.3662 30.6203 65.4668 28.9116 71.017C27.2156 75.2069 25.9759 79.5817 25.2231 84.0391C25.0221 85.2309 24.9929 86.7336 26.043 87.3315C26.9287 86.5504 27.4826 85.4693 28.0153 84.4152C32.3322 75.8832 36.648 67.3512 40.9649 58.8192C42.0801 56.6145 43.1974 54.4067 44.4958 52.304C45.8077 50.1787 47.2982 48.1706 48.7876 46.1655C52.0777 41.7345 55.3679 37.3025 58.658 32.8715C58.8549 32.606 59.0586 32.2498 58.8849 31.9684C58.686 31.6464 58.2015 31.7348 57.8501 31.8752Z" fill="#2E0503"/>
<path d="M63.8426 28.0754C62.7907 28.7483 62.0667 29.8171 61.3737 30.8556C58.9318 34.5131 56.4894 38.171 54.048 41.8289C52.775 43.7354 51.4921 45.6621 50.6728 47.8033C49.9755 49.6267 49.6297 51.569 48.9354 53.3935C47.3976 57.4316 44.2749 60.6161 41.6415 64.0427C36.2652 71.0384 32.7954 79.2883 29.6737 87.5406C28.2183 91.3892 26.8119 95.3174 26.464 99.4175C26.1161 103.518 26.9356 107.869 29.5269 111.064C29.7665 111.36 30.0367 111.655 30.3963 111.782C31.3281 112.107 32.1883 111.175 32.7258 110.346C38.7369 101.067 42.9274 90.3413 51.0901 82.884C56.5243 77.9193 63.3598 74.7606 69.1369 70.2004C69.3273 70.05 69.5322 69.8709 69.5523 69.6291C69.6001 69.063 68.7552 68.9705 68.2034 69.1064C61.6022 70.7319 54.7825 72.461 49.4295 76.6518C41.0452 83.2158 37.937 94.389 31.4376 102.824C30.0075 101.849 30.4709 99.6621 31.0925 98.0466C33.4628 91.8846 35.8337 85.722 38.204 79.56C39.9144 75.1148 41.6492 70.6208 44.3658 66.7079C46.3757 63.8126 48.8943 61.2799 50.7175 58.2631C52.3349 55.5867 53.3605 52.6034 54.6584 49.758C56.7688 45.1325 59.5988 40.877 62.4164 36.645C64.1742 34.005 65.5948 30.6478 67.352 28.0083C66.3732 27.2303 64.895 27.4029 63.8426 28.0754Z" fill="#2E0503"/>
<path d="M130.149 50.5136C128.825 49.8171 127.395 49.2358 125.9 49.2083C122.9 49.1536 120.341 51.288 118.26 53.4502C109.519 62.5335 103.855 74.067 98.3304 85.3976C94.2241 93.8186 90.1178 102.241 86.0115 110.662C84.4707 113.822 82.8904 117.177 83.1771 120.681C83.2728 121.851 83.5771 123.025 83.3802 124.183C83.1839 125.339 82.2585 126.503 81.0873 126.43C80.1382 126.371 79.4216 125.548 78.9536 124.721C76.3733 120.151 78.0778 114.455 79.8319 109.508C80.9275 106.42 82.0236 103.33 83.1192 100.241C84.2343 97.0976 85.35 93.9511 86.6688 90.8869C94.1322 73.5394 107.843 59.3177 114.428 41.6179C115.211 39.5154 115.863 37.0669 114.747 35.1206C113.693 33.2798 111.3 32.5366 109.205 32.8696C107.11 33.2027 105.261 34.4052 103.579 35.6976C95.3718 42.0026 89.4677 51.2408 87.1919 61.3363C86.8818 62.71 86.5819 64.201 85.5365 65.1452C83.6105 63.6903 82.7621 61.1381 82.8133 58.725C82.8651 56.3114 83.6935 53.9882 84.5747 51.7412C87.7176 43.7314 91.6681 36.0387 96.3474 28.8182C97.5698 26.9316 98.7909 24.2666 97.2044 22.6735C96.3401 21.8057 94.9812 21.7124 93.7566 21.7513C87.3541 21.9563 80.9009 24.5085 76.6738 29.3219C75.0207 31.2047 73.737 33.3788 72.5498 35.585C68.0745 43.9044 64.8 53.6449 67.4073 62.7253C67.458 54.3385 70.8844 45.5162 74.9927 38.2039C75.8905 36.606 76.8797 35.0538 78.055 33.6476C79.245 32.2244 80.6143 30.9634 82.0135 29.7457C83.5075 28.4446 85.0646 27.1714 86.8725 26.3606C88.6804 25.5498 90.79 25.2397 92.6535 25.9133C90.0339 30.9189 86.8814 35.6276 84.1574 40.5769C81.4328 45.5268 79.115 50.8003 78.3572 56.3988C77.9631 59.3129 78.1176 62.5994 80.143 64.7315C81.3127 65.9628 82.9523 66.6301 84.5812 67.1103C85.1205 67.2696 85.8159 67.3621 86.1431 66.9045C86.1944 68.6148 86.2875 70.1203 85.6847 71.722C81.1266 81.1735 71.3252 86.7718 64.2842 94.5515C56.1665 103.52 51.86 115.261 48.6355 126.92C45.9417 123.367 45.0559 118.663 45.5684 114.233C46.0814 109.804 47.8892 105.614 50.1374 101.764C53.782 95.5228 59.6021 89.5292 66.8286 89.5503C64.6269 87.7119 61.3549 87.5893 58.6778 88.6197C56.0007 89.6501 53.8216 91.6603 51.8997 93.7901C48.2101 97.8777 45.2027 102.58 43.0387 107.643C41.5367 111.157 40.43 114.917 40.5223 118.738C40.6147 122.558 42.027 126.461 44.8981 128.983C46.5804 130.461 49.2019 131.381 51.0139 130.065C52.1329 129.253 52.5999 127.838 53.0226 126.521C55.7163 118.13 59.2222 110 63.4736 102.28C65.0859 99.3531 66.8417 96.4384 69.3129 94.1891C71.0738 92.5862 73.1472 91.368 75.0073 89.881C79.2468 86.4925 82.2438 81.829 85.1632 77.2536C86.8592 74.5964 88.5957 71.8297 89.0248 68.7063C89.3856 66.0811 88.7907 63.3646 89.3815 60.7815C89.9029 58.4996 91.3003 56.5315 92.6661 54.6299C97.1913 48.3321 101.96 41.8171 108.811 38.1841C109.454 37.8433 110.245 37.5304 110.878 37.889C111.831 38.4273 111.546 39.859 111.101 40.8581C109.196 45.1203 106.667 49.0686 104.148 52.9982C99.5148 60.2258 94.8812 67.4528 90.2482 74.6803C84.9198 82.9922 79.5556 91.3725 75.9622 100.569C74.4948 104.324 73.3315 108.197 72.4538 112.132C71.7644 115.223 71.2488 118.407 71.642 121.549C72.0346 124.691 73.4383 127.819 75.9746 129.716C78.5103 131.612 82.2694 131.999 84.8421 130.152C87.5422 128.213 88.2852 124.601 89.0427 121.365C90.7741 113.972 93.6392 106.846 97.506 100.312L97.2612 100.709C99.2736 96.3037 101.286 91.8973 103.426 87.5524C108.261 77.732 113.819 68.1271 121.382 60.2136C123.285 58.2226 125.601 56.2243 128.354 56.2424C129.773 56.2513 131.404 56.7483 132.47 55.8114C133.327 55.0586 133.326 53.6519 132.747 52.6687C132.169 51.6865 131.158 51.0444 130.149 50.5136Z" fill="#2E0503"/>
</g>
<path d="M56.8152 30.8618C53.0492 32.3701 49.9946 35.2786 47.5427 38.5106C45.0907 41.7425 43.1603 45.3318 40.9838 48.7553C39.6771 50.8114 38.2798 52.8101 36.7971 54.7434C33.2638 59.3528 29.5853 64.4533 27.8767 70.0036C26.1806 74.1935 24.941 78.5682 24.1882 83.0256C23.9872 84.2174 23.9579 85.7202 25.0081 86.318C25.8938 85.5369 26.4477 84.4559 26.9809 83.4013C31.2978 74.8693 35.6136 66.3373 39.9305 57.8053C41.0457 55.6005 42.163 53.3928 43.4609 51.2895C44.7728 49.1642 46.2638 47.1566 47.7527 45.151C51.0428 40.72 54.333 36.288 57.6231 31.8571C57.82 31.5915 58.0237 31.2353 57.8501 30.9539C57.6505 30.6335 57.1655 30.7214 56.8152 30.8618Z" fill="#E7D9CC"/>
<path d="M62.8071 27.0625C61.7547 27.7349 61.0312 28.8042 60.3382 29.8427C57.8963 33.5002 55.454 37.1581 53.0121 40.8155C51.739 42.722 50.4556 44.6491 49.6369 46.7899C48.9395 48.6133 48.5937 50.5556 47.8994 52.3801C46.3616 56.4181 43.2389 59.6027 40.6055 63.0292C35.2292 70.025 31.7595 78.2749 28.6377 86.5271C27.1823 90.3758 25.7759 94.304 25.428 98.4041C25.0802 102.504 25.8996 106.855 28.4909 110.051C28.7305 110.346 29.0007 110.642 29.3603 110.768C30.2921 111.094 31.1523 110.162 31.6899 109.333C37.701 100.053 41.8914 89.3279 50.0542 81.8706C55.4883 76.9059 62.3238 73.7472 68.1009 69.187C68.2913 69.0366 68.4963 68.8575 68.5164 68.6157C68.5642 68.0496 67.7192 67.9571 67.1674 68.0929C60.5662 69.7184 53.7465 71.4475 48.3935 75.6383C40.0093 82.2024 36.9011 93.3756 30.4016 101.811C28.9715 100.835 29.4349 98.6486 30.056 97.0327C32.4263 90.8706 34.7972 84.7081 37.1675 78.546C38.8779 74.1008 40.6133 69.6064 43.3293 65.6939C45.3393 62.7987 47.8583 60.2654 49.681 57.2492C51.2985 54.5727 52.324 51.5895 53.6219 48.7441C55.7329 44.1181 58.5624 39.863 61.38 35.631C63.1371 32.9915 64.5583 29.6339 66.3155 26.9943C65.3382 26.217 63.859 26.3895 62.8071 27.0625Z" fill="#E7D9CC"/>
<path d="M129.114 49.5002C127.79 48.8038 126.36 48.2224 124.866 48.1955C121.866 48.1408 119.306 50.2752 117.226 52.4374C108.485 61.5212 102.821 73.0542 97.2959 84.3848C93.1891 92.8063 89.0832 101.228 84.9764 109.649C83.4357 112.809 81.8553 116.165 82.1421 119.669C82.2378 120.838 82.5421 122.013 82.3452 123.17C82.1488 124.327 81.2234 125.49 80.0522 125.417C79.1031 125.359 78.386 124.537 77.9186 123.708C75.3383 119.139 77.0427 113.442 78.7969 108.496C79.8924 105.407 80.9885 102.318 82.0841 99.2291C83.1992 96.0852 84.3149 92.9388 85.6338 89.8746C93.0971 72.5271 106.808 58.3054 113.393 40.6056C114.176 38.5031 114.828 36.0546 113.712 34.1083C112.657 32.2675 110.265 31.5243 108.17 31.8573C106.075 32.1903 104.226 33.3929 102.544 34.6852C94.3368 40.9903 88.4326 50.2285 86.1569 60.324C85.8467 61.6977 85.5468 63.1887 84.5015 64.1329C82.5755 62.678 81.727 60.1258 81.7783 57.7127C81.8295 55.2996 82.6584 52.9759 83.5396 50.7288C86.6826 42.7191 90.6331 35.0264 95.3123 27.8059C96.5348 25.9193 97.7563 23.2538 96.1693 21.6612C95.305 20.7933 93.9461 20.7001 92.7215 20.739C86.3191 20.944 79.8659 23.4962 75.6388 28.3096C73.9857 30.1924 72.702 32.3665 71.5148 34.5726C67.0395 42.8921 63.7649 52.6326 66.3722 61.713C66.4229 53.3262 69.8493 44.5039 73.9577 37.1915C74.8554 35.5937 75.8447 34.0415 77.0199 32.6352C78.2099 31.2121 79.5793 29.9511 80.9784 28.7334C82.4725 27.4323 84.0295 26.1591 85.8374 25.3483C87.6453 24.5375 89.755 24.2274 91.6184 24.901C88.9989 29.9066 85.8468 34.6148 83.1223 39.5646C80.3978 44.5145 78.0799 49.788 77.3222 55.3865C76.9281 58.3006 77.0826 61.5871 79.108 63.7192C80.2777 64.9505 81.9173 65.6178 83.5462 66.098C84.0854 66.2572 84.7813 66.3503 85.1075 65.8927C85.1588 67.603 85.252 69.1085 84.6491 70.7102C80.091 80.1617 70.2896 85.76 63.2486 93.5397C55.1309 102.508 50.8244 114.249 47.5999 125.908C44.9061 122.356 44.0193 117.651 44.5328 113.221C45.0459 108.793 46.8536 104.602 49.1018 100.752C52.7464 94.511 58.5665 88.5174 65.793 88.5385C63.5913 86.7001 60.3193 86.5774 57.6422 87.6079C54.9651 88.6383 52.7865 90.649 50.8641 92.7783C47.1745 96.8659 44.1671 101.568 42.0036 106.631C40.5022 110.145 39.3944 113.905 39.4873 117.725C39.5797 121.546 40.992 125.449 43.863 127.971C45.5454 129.449 48.1669 130.369 49.9789 129.053C51.0978 128.241 51.5649 126.825 51.9881 125.509C54.6817 117.117 58.1877 108.987 62.4391 101.268C64.0514 98.3403 65.8072 95.4256 68.2783 93.1762C70.0393 91.5734 72.1127 90.3552 73.9722 88.8687C78.2117 85.4802 81.2088 80.8167 84.1282 76.2413C85.8236 73.5835 87.5607 70.8173 87.9897 67.694C88.3506 65.0688 87.7556 62.3523 88.3464 59.7692C88.8678 57.4872 90.2653 55.5192 91.6311 53.6175C96.1563 47.3197 100.925 40.8048 107.776 37.1718C108.419 36.831 109.21 36.5186 109.843 36.8767C110.796 37.415 110.511 38.8467 110.065 39.8453C108.161 44.1075 105.632 48.0557 103.112 51.9854C98.4793 59.2129 93.8457 66.4399 89.2127 73.6674C83.8842 81.9794 78.52 90.3597 74.9267 99.5562C73.4597 103.312 72.296 107.184 71.4182 111.119C70.7289 114.21 70.2133 117.394 70.6064 120.536C70.9991 123.679 72.4027 126.806 74.939 128.703C77.4748 130.599 81.2339 130.986 83.8066 129.139C86.5067 127.201 87.2491 123.589 88.0072 120.352C89.7386 112.96 92.6036 105.834 96.471 99.3L96.2262 99.6968C98.2385 95.2914 100.251 90.8849 102.391 86.54C107.226 76.7197 112.784 67.1148 120.347 59.2013C122.249 57.2108 124.565 55.2124 127.319 55.2301C128.738 55.2389 130.369 55.736 131.435 54.7996C132.292 54.0467 132.29 52.6401 131.712 51.6569C131.134 50.6732 130.123 50.0315 129.114 49.5002Z" fill="#E7D9CC"/>
<path d="M47.7892 130.52C47.8155 130.496 47.7774 130.455 47.7512 130.48C47.7244 130.504 47.763 130.545 47.7892 130.52Z" fill="#F87974"/>
<path d="M27.4302 78.6499C29.4163 74.9924 30.7485 70.9844 33.0193 67.4968C33.4058 66.9032 33.8211 66.3222 34.1016 65.6718C34.4629 64.8335 34.5856 63.9154 34.8287 63.0357C35.3661 61.0865 36.4817 59.3549 37.5815 57.658C40.0687 53.8203 42.5553 49.982 45.0425 46.1442C45.7075 45.1181 46.3742 44.0895 47.1605 43.1533C47.8075 42.3828 48.5322 41.68 49.2116 40.9376C50.1042 39.9628 50.9193 38.9192 51.7333 37.8777C52.8176 36.4896 53.9019 35.1016 54.9867 33.7141C55.1981 33.4438 55.4137 33.1656 55.514 32.8374C55.6516 32.3899 55.5337 31.9519 55.2713 31.5857C52.2063 33.202 49.6506 35.7342 47.5442 38.5101C45.0923 41.7421 43.1619 45.3313 40.9853 48.7549C39.6786 50.8109 38.2813 52.8096 36.7987 54.7429C33.2653 59.3523 29.5869 64.4529 27.8782 70.0031C26.5028 73.3999 25.4446 76.9212 24.6862 80.5061C24.7731 80.5353 24.8605 80.563 24.9551 80.575C26.0588 80.7203 26.8972 79.63 27.4302 78.6499Z" fill="white"/>
<path d="M29.4939 105.033C29.1513 106.012 28.6402 106.944 28.4831 107.97C28.448 108.199 28.4811 108.505 28.7066 108.558C28.8151 108.582 28.9258 108.533 29.0239 108.479C30.978 107.41 31.4946 104.915 32.341 102.856C33.8025 99.2976 36.6831 96.538 38.733 93.2841C40.3524 90.7139 41.455 87.8304 43.2254 85.3617C44.5822 83.4695 46.2977 81.8699 48.001 80.2827C50.1166 78.3124 52.2495 76.3279 54.7126 74.8153C55.9187 74.0745 57.1941 73.4528 58.4669 72.8335C60.3686 71.9076 62.2699 70.9812 64.1706 70.0553C64.4244 69.9313 64.686 69.8061 64.9675 69.7789C65.4093 69.7366 65.8323 69.9429 66.2257 70.1483C66.3443 70.2101 66.4644 70.2714 66.5845 70.3327C67.0955 69.9588 67.6031 69.5802 68.1004 69.1874C68.2907 69.037 68.4957 68.858 68.5158 68.6161C68.5636 68.05 67.7186 67.9575 67.1669 68.0934C60.5657 69.7189 53.746 71.448 48.393 75.6388C40.0087 82.2029 36.9005 93.376 30.4011 101.811C30.2371 101.699 30.1006 101.57 29.9834 101.428C30.0598 102.646 29.8969 103.88 29.4939 105.033Z" fill="white"/>
<path d="M27.1272 104.831C27.1599 98.94 28.7126 93.064 31.5934 87.9254C32.1238 86.9794 32.7039 86.0441 33.0014 85.0012C33.3247 83.8677 33.2974 82.6619 33.568 81.5145C34.1062 79.2346 35.7803 77.3342 36.2277 75.0346C36.4622 73.8321 36.3576 72.5346 36.9134 71.4428C37.3514 70.5818 38.1428 69.9658 38.7639 69.2257C41.0107 66.5474 41.2095 62.0814 44.3798 60.6075C45.5777 60.0508 47.0511 60.0373 48.0339 59.155C48.6991 58.5576 49.0088 57.6697 49.2923 56.8214C50.4434 53.3841 51.5934 49.9468 52.7444 46.5095C53.377 44.6193 54.0295 42.6914 55.2332 41.1028C55.9053 40.2157 56.7353 39.4544 57.3714 38.5417C59.0352 36.1525 59.2542 32.9038 61.2086 30.7455C61.6717 30.2343 62.2246 29.7943 62.5823 29.2049C62.9396 28.615 63.0523 27.7967 62.6089 27.2678C62.5966 27.2536 62.5805 27.245 62.5676 27.2323C61.6443 27.9071 60.9761 28.8857 60.3372 29.8427C57.8953 33.5001 55.4529 37.158 53.011 40.8155C51.738 42.722 50.4546 44.6491 49.6358 46.7899C48.9385 48.6133 48.5927 50.5555 47.8984 52.38C46.3606 56.4181 43.2379 59.6027 40.6045 63.0292C35.2282 70.0249 31.7584 78.2748 28.6367 86.5271C27.1813 90.3757 25.7749 94.3039 25.427 98.4041C25.1721 101.406 25.5476 104.541 26.7815 107.261C26.823 107.171 26.8695 107.085 26.9014 106.991C27.1387 106.302 27.123 105.558 27.1272 104.831Z" fill="white"/>
<path d="M70.0369 40.4722C71.1972 37.7406 72.9642 35.3167 74.7185 32.9226C75.9495 31.244 77.1993 29.5476 78.8029 28.2207C80.6954 26.6545 82.9913 25.6727 85.2519 24.7124C86.8082 24.0511 88.4211 23.3784 90.1124 23.3985C90.865 23.4075 91.6159 23.5548 92.3656 23.4872C93.7311 23.3643 94.9236 22.4164 95.5286 21.1971C94.7088 20.7629 93.6764 20.7071 92.7221 20.7384C86.3196 20.9433 79.8664 23.4956 75.6393 28.309C73.9862 30.1917 72.7025 32.3659 71.5153 34.572C68.3609 40.4357 65.8139 47.0048 65.4918 53.5515C66.683 50.0695 67.8737 46.587 69.0644 43.1055C69.3673 42.221 69.6709 41.3339 70.0369 40.4722Z" fill="white"/>
<path d="M85.8923 63.7303C86.1635 63.368 86.2748 62.9146 86.3866 62.4765C88.7568 53.1689 94.1035 44.6426 101.45 38.4564C103.043 37.1154 104.76 35.8635 106.73 35.1862C108.698 34.5094 110.965 34.4664 112.787 35.474C113.251 35.7305 113.779 36.0523 114.27 35.988C114.21 35.3319 114.049 34.6957 113.712 34.1082C112.657 32.2674 110.265 31.5242 108.17 31.8572C106.075 32.1902 104.226 33.3928 102.544 34.6851C94.3368 40.9902 88.4326 50.2284 86.1568 60.3239C85.8502 61.6845 85.5498 63.157 84.5305 64.1025C84.5858 64.1445 84.646 64.181 84.7127 64.2024C85.1423 64.341 85.6215 64.0922 85.8923 63.7303Z" fill="white"/>
<path d="M74.2628 123.335C73.7207 123.624 73.178 123.913 72.6359 124.202C75.2275 110.525 79.3182 97.1322 84.812 84.342C85.2706 83.2733 85.7489 82.1941 86.4856 81.2947C87.3326 80.2608 88.4853 79.5107 89.3348 78.4784C90.5011 77.0607 91.0073 75.231 91.7941 73.5721C92.9113 71.2168 94.6054 69.1945 96.1946 67.1281C102.215 59.2991 106.919 50.5175 110.739 41.4095C111.201 40.3068 111.644 39.0131 111.067 37.9667C110.903 37.6688 110.618 37.4662 110.296 37.3528C110.655 38.0292 110.414 39.0657 110.067 39.8447C108.162 44.1069 105.633 48.0552 103.114 51.9849C98.4809 59.2124 93.8473 66.4394 89.2143 73.6669C83.8858 81.9788 78.5216 90.3591 74.9283 99.5556C73.4613 103.311 72.2976 107.183 71.4198 111.118C70.7305 114.209 70.2149 117.393 70.608 120.535C70.9435 123.224 72.0267 125.895 73.9181 127.8C74.0961 127.688 74.2637 127.561 74.4103 127.406C75.4516 126.31 75.3818 124.353 74.2628 123.335Z" fill="white"/>
<path d="M83.2539 123.434C85.5671 120.248 85.8233 116.025 87.5219 112.474C88.2221 111.01 89.1609 109.675 89.9495 108.258C92.2621 104.101 93.2252 99.3555 94.641 94.8141C94.9237 93.9071 95.2289 92.9976 95.712 92.1793C96.0343 91.6333 96.4307 91.1354 96.807 90.6247C97.672 89.452 98.434 88.2078 99.1944 86.9651C103.955 79.1892 108.716 71.4123 113.477 63.6364C114.218 62.4258 114.97 61.2022 115.984 60.2086C117.235 58.9817 118.847 58.1441 119.976 56.8044C120.826 55.7946 121.366 54.5396 122.292 53.5979C123.218 52.6562 124.79 52.1088 125.851 52.8958C126.567 53.4269 126.81 54.3785 126.922 55.2629C127.055 55.2541 127.184 55.2289 127.318 55.2299C128.737 55.2388 130.368 55.7359 131.434 54.7995C132.291 54.0466 132.289 52.6399 131.711 51.6567C131.133 50.673 130.122 50.0314 129.112 49.5006C127.789 48.8041 126.359 48.2228 124.864 48.1958C121.864 48.1411 119.305 50.2755 117.224 52.4377C108.484 61.5215 102.819 73.0546 97.2943 84.3851C93.1875 92.8066 89.0817 101.228 84.9749 109.65C83.4342 112.81 81.8538 116.165 82.1405 119.669C82.2363 120.839 82.5405 122.013 82.3436 123.171C82.1988 124.025 81.6543 124.88 80.9084 125.241C80.9676 125.227 81.028 125.217 81.0857 125.2C81.9917 124.914 82.6973 124.2 83.2539 123.434Z" fill="white"/>
<path d="M79.0178 60.1145C79.0492 60.3227 79.1252 60.5781 79.333 60.6094C79.5382 60.6402 79.6867 60.4221 79.7676 60.2312C80.4069 58.7219 80.2754 57.0158 80.4606 55.3871C80.7532 52.8073 81.8486 50.3962 82.9298 48.0353C84.6904 44.1898 86.4661 40.3172 88.9204 36.873C89.6587 35.8363 90.4597 34.8378 91.0688 33.7206C92.348 31.3743 92.7779 28.5246 94.6036 26.5726C95.0409 26.1056 95.5503 25.7004 95.9143 25.1745C96.2783 24.6487 96.4793 23.9463 96.2116 23.365C96.1752 23.2863 96.1291 23.2089 96.0618 23.1543C95.8162 22.9555 95.4482 23.1423 95.2255 23.3668C94.8569 23.7384 94.5955 24.2123 94.1939 24.5487C93.4497 25.1718 92.3989 25.2037 91.3978 25.3106C88.8222 30.1629 85.7718 34.7507 83.1223 39.5645C80.9239 43.5585 79.0053 47.7677 77.9424 52.1851C77.9386 52.8822 78.0324 53.5776 78.1365 54.2683C78.4306 56.2167 78.7242 58.1656 79.0178 60.1145Z" fill="white"/>
<path d="M48.0909 127.018C48.5924 127.143 48.9601 126.564 49.1518 126.083C51.6736 119.74 54.1964 113.397 56.7182 107.054C57.3392 105.491 57.9646 103.921 58.8306 102.48C59.5686 101.251 60.4733 100.132 61.4046 99.0429C67.7873 91.5775 75.5377 85.3653 81.8373 77.8295C84.3905 74.7757 86.8191 71.0198 86.1141 67.1021C86.0359 66.6685 85.8993 66.2096 85.5501 65.9417C85.4071 66.0635 85.2641 66.1852 85.1215 66.3075C85.1707 67.8483 85.2036 69.2391 84.6501 70.7091C80.092 80.1606 70.2907 85.7589 63.2497 93.5386C55.132 102.507 50.8255 114.248 47.6009 125.907C47.44 125.695 47.2868 125.479 47.1388 125.258C47.2229 125.649 47.3415 126.032 47.507 126.395C47.629 126.664 47.8047 126.948 48.0909 127.018Z" fill="white"/>
<path d="M42.4068 121.125C41.9171 119.801 41.4228 118.448 41.3757 117.037C41.271 113.858 43.4068 111.088 44.3407 108.047C44.6578 107.014 44.8374 105.938 45.2212 104.928C45.6384 103.83 46.2856 102.836 46.9273 101.853C47.9374 100.305 48.948 98.7575 49.958 97.2095C50.8712 95.8101 51.8018 94.3904 53.067 93.2987C54.3123 92.2238 55.8682 91.5432 57.4901 91.278C59.9733 89.5909 62.7575 88.529 65.7941 88.5374C63.5924 86.699 60.3204 86.5763 57.6433 87.6068C54.9662 88.6372 52.7876 90.6479 50.8652 92.7772C47.1756 96.8648 44.1682 101.567 42.0042 106.63C40.5027 110.144 39.3955 113.904 39.4878 117.725C39.5802 121.545 40.9925 125.448 43.8636 127.97C44.8966 128.877 46.2838 129.572 47.6195 129.67C47.0819 128.499 45.9843 127.582 45.1395 126.559C43.8417 124.988 43.1129 123.037 42.4068 121.125Z" fill="white"/>
</svg>
