<svg width="59" height="58" viewBox="0 0 59 58" fill="none" xmlns="http://www.w3.org/2000/svg">
<path d="M38.0139 33.83H36.106L35.4298 33.1779C37.8786 30.338 39.2243 26.7121 39.2215 22.9622C39.2215 19.8575 38.3008 16.8224 36.5759 14.2409C34.851 11.6594 32.3993 9.64739 29.5309 8.45925C26.6625 7.27111 23.5062 6.96024 20.4611 7.56595C17.416 8.17166 14.6189 9.66674 12.4235 11.8621C10.2281 14.0575 8.73303 16.8546 8.12732 19.8997C7.52161 22.9448 7.83249 26.1011 9.02062 28.9695C10.2088 31.8379 12.2208 34.2896 14.8023 36.0145C17.3838 37.7394 20.4188 38.6601 23.5236 38.6601C27.4118 38.6601 30.9861 37.2352 33.7393 34.8685L34.3913 35.5447V37.4526L46.4666 49.5037L50.0651 45.9053L38.0139 33.83ZM23.5236 33.83C17.5101 33.83 12.6558 28.9757 12.6558 22.9622C12.6558 16.9487 17.5101 12.0944 23.5236 12.0944C29.5371 12.0944 34.3913 16.9487 34.3913 22.9622C34.3913 28.9757 29.5371 33.83 23.5236 33.83Z" fill="#8569E4"/>
</svg>
