<svg width="137" height="30" viewBox="0 0 137 30" fill="none" xmlns="http://www.w3.org/2000/svg">
<path d="M87.7339 25.8831L89.6839 17.4533L83.144 11.7835L91.7838 11.0335L95.1437 3.08368L98.5036 11.0335L107.143 11.7835L100.604 17.4533L102.554 25.8831L95.1437 21.4132L87.7339 25.8831Z" fill="#FFBF51"/>
<path d="M114.533 26.1994L116.483 17.7696L109.943 12.0997L118.583 11.3498L121.943 3.39996L125.303 11.3498L133.943 12.0997L127.403 17.7696L129.353 26.1994L121.943 21.7295L114.533 26.1994Z" fill="#FFBF51"/>
<path d="M34.1354 25.8831L36.0854 17.4533L29.5455 11.7835L38.1853 11.0335L41.5452 3.08368L44.9051 11.0335L53.5449 11.7835L47.0051 17.4533L48.955 25.8831L41.5452 21.4132L34.1354 25.8831Z" fill="#FFBF51"/>
<path d="M60.9347 25.8831L62.8847 17.4533L56.3448 11.7835L64.9846 11.0335L68.3445 3.08368L71.7044 11.0335L80.3442 11.7835L73.8044 17.4533L75.7543 25.8831L68.3445 21.4132L60.9347 25.8831Z" fill="#FFBF51"/>
<path d="M7.33622 25.3206L9.28617 16.8908L2.74634 11.221L11.3861 10.471L14.746 2.52118L18.1059 10.471L26.7457 11.221L20.2059 16.8908L22.1558 25.3206L14.746 20.8507L7.33622 25.3206Z" fill="#FFBF51"/>
</svg>
